<?xml version="1.0" standalone="no"?>
<!DOCTYPE svg PUBLIC "-//W3C//DTD SVG 20010904//EN"
 "http://www.w3.org/TR/2001/REC-SVG-20010904/DTD/svg10.dtd">
<svg version="1.0" xmlns="http://www.w3.org/2000/svg"
 width="200.000000pt" height="200.000000pt" viewBox="0 0 200.000000 200.000000"
 preserveAspectRatio="xMidYMid meet">
<metadata>
Created by potrace 1.16, written by Peter Selinger 2001-2019
</metadata>
<g transform="translate(0.000000,200.000000) scale(0.100000,-0.100000)"
fill="#000000" stroke="none">
<path d="M534 1256 c-3 -7 -4 -17 -2 -22 5 -16 -47 -124 -59 -124 -30 0 -149
62 -158 83 -14 31 -60 35 -75 6 -9 -16 -9 -28 -1 -47 10 -21 17 -24 45 -19 22
4 50 -3 92 -21 70 -32 76 -53 29 -102 -23 -24 -36 -30 -56 -26 -14 3 -38 -2
-54 -10 -37 -19 -88 -3 -126 38 -20 23 -32 28 -48 23 -18 -5 -22 -13 -19 -38
3 -28 7 -32 33 -32 17 0 51 -9 76 -20 63 -26 76 -64 39 -117 -14 -21 -31 -38
-37 -38 -19 0 -16 -47 3 -54 19 -7 45 11 42 28 -1 6 9 28 22 48 20 30 32 37
65 41 47 4 71 -9 93 -54 20 -39 51 -48 77 -22 10 9 48 27 85 39 58 18 70 19
86 7 10 -8 28 -13 40 -11 28 4 73 -27 84 -58 8 -20 16 -25 38 -22 21 2 27 8
27 28 0 19 -6 26 -25 28 -38 5 -78 48 -72 77 3 17 -4 31 -22 48 -23 22 -26 32
-26 95 0 39 4 73 8 76 5 3 37 -14 72 -37 49 -32 76 -60 114 -119 50 -75 86
-100 86 -59 0 11 -4 21 -10 23 -5 2 -30 32 -55 68 l-46 65 40 38 c22 20 49 37
59 37 30 0 46 24 32 50 -15 28 -51 23 -67 -10 -6 -13 -29 -39 -50 -56 l-38
-32 -56 30 c-30 17 -60 40 -65 52 -5 11 -20 23 -34 24 -31 5 -130 79 -130 98
0 18 -49 18 -56 0z m97 -87 c27 -22 49 -47 49 -54 0 -7 7 -18 15 -25 22 -18
22 -165 0 -156 -30 11 -163 131 -169 152 -6 24 31 124 46 124 6 0 32 -18 59
-41z m-33 -204 c86 -74 86 -91 -7 -118 -57 -17 -62 -18 -77 -2 -10 10 -26 14
-37 11 -11 -3 -33 2 -48 11 -21 12 -28 26 -31 55 -3 32 1 43 27 67 25 25 68
41 97 37 3 -1 38 -28 76 -61z"/>
<path d="M1215 1176 c-151 -68 -143 -296 12 -347 21 -6 57 -27 81 -45 56 -42
116 -53 166 -29 48 23 52 32 26 60 -20 21 -24 22 -50 9 -26 -13 -61 -10 -60 5
1 3 15 15 33 26 40 25 77 97 77 150 0 45 -28 111 -56 137 -52 46 -165 62 -229
34z m144 -82 c13 -9 29 -31 37 -50 44 -104 -87 -195 -167 -115 -64 64 -19 181
70 181 20 0 47 -7 60 -16z"/>
<path d="M1652 1173 c-18 -34 -152 -341 -152 -347 0 -3 21 -6 46 -6 44 0 46 1
61 40 l16 40 77 0 77 0 18 -40 c17 -38 20 -40 62 -40 27 0 43 4 43 12 0 7 -35
90 -77 185 l-77 173 -43 0 c-30 0 -45 -5 -51 -17z"/>
</g>
</svg>
